<?xml version="1.0" encoding="utf-8"?>
<svg version="1.1" xmlns="http://www.w3.org/2000/svg" xmlns:xlink="http://www.w3.org/1999/xlink" x="0px" y="0px"
	 viewBox="0 0 2000 2000" xml:space="preserve">
<style type="text/css">
	.st0{fill:#F2EBDC;}
	.st1{fill:#E7A930;}
</style>
<g>
	<path class="st0" d="M305,1181c-13.8,0-26.4-3.4-37.8-10.3c-11.5-6.9-20.6-16-27.5-27.5c-6.9-11.5-10.3-24.1-10.3-37.8V974H547v-80
		c0-6.7-2.4-12.4-7.2-17.2c-4.8-4.8-10.5-7.2-17.2-7.2H229.3v-51.3h293.3c14.2,0,27,3.4,38.5,10.3c11.5,6.9,20.6,16.1,27.5,27.5
		c6.9,11.5,10.3,24.1,10.3,37.8v287H305z M305,1129.8h242v-104.4H280.6v80c0,6.7,2.4,12.4,7.2,17.2
		C292.6,1127.4,298.3,1129.8,305,1129.8z M650.1,1181V894c0-13.8,3.4-26.4,10.3-37.8c6.9-11.5,16-20.6,27.5-27.5
		c11.5-6.9,24.1-10.3,37.8-10.3h203.9v51.3H725.8c-6.7,0-12.4,2.4-17.2,7.2c-4.8,4.8-7.2,10.5-7.2,17.2v287H650.1z M1030.7,1283.6
		v-51.3h243.5c6.7,0,12.4-2.4,17.2-7.2c4.8-4.8,7.2-10.5,7.2-17.2V1181h-242c-13.8,0-26.4-3.4-37.8-10.3
		c-11.5-6.9-20.6-16-27.5-27.5c-6.9-11.5-10.3-24.1-10.3-37.8v-287h51.3v287c0,6.7,2.4,12.4,7.2,17.2c4.8,4.8,10.5,7.2,17.2,7.2
		h217.6c6.7,0,12.4-2.4,17.2-7.2c4.8-4.8,7.2-10.5,7.2-17.2v-287h51.3v388.9c0,14.2-3.3,27-10,38.5c-6.7,11.5-15.7,20.6-27.2,27.5
		c-11.5,6.9-24.3,10.3-38.5,10.3H1030.7z M1476.8,1181c-13.8,0-26.4-3.4-37.8-10.3c-11.5-6.9-20.6-16-27.5-27.5
		c-6.9-11.5-10.3-24.1-10.3-37.8V974h317.7v-80c0-6.7-2.4-12.4-7.2-17.2c-4.8-4.8-10.5-7.2-17.2-7.2h-293.3v-51.3h293.3
		c14.2,0,27,3.4,38.5,10.3c11.5,6.9,20.6,16.1,27.5,27.5c6.9,11.5,10.3,24.1,10.3,37.8v287H1476.8z M1476.8,1129.8h242v-104.4
		h-266.4v80c0,6.7,2.4,12.4,7.2,17.2C1464.4,1127.4,1470.1,1129.8,1476.8,1129.8z M287.9,1283.6h-46.2c-6.9,0-12.4-5.6-12.4-12.4
		v-26.4c0-6.8,5.6-12.4,12.4-12.4h46.2c6.9,0,12.4,5.6,12.4,12.4v26.4C300.3,1278,294.8,1283.6,287.9,1283.6z M241.7,1236.4
		c-4.6,0-8.3,3.7-8.3,8.3v26.4c0,4.6,3.7,8.3,8.3,8.3h46.2c4.6,0,8.3-3.7,8.3-8.3v-26.4c0-4.6-3.7-8.3-8.3-8.3H241.7z M413.5,1236.4
		v-4.1c-23.8,0-47.4,0-71,0c0,16.3,0,35.3,0,51.3h4.1V1260h66.9v-4.1h-66.9v-19.5H413.5z M639.9,1236.4v-4.1h-33.5h-4.1h-33.5v4.1
		h33.5v43.1h-33.5v4.1h33.5h4.1h33.5v-4.1h-33.5v-43.1H639.9z M526.7,1236.4v-4.1c-23.8,0-47.4,0-71,0c0,15.2,0,34,0,51.3h4.1V1260
		h66.9v-4.1h-66.9v-19.5H526.7z M866.2,1236.4v-4.1h-66.9h-4.1v4.1v19.5v4.1v19.5v4.1h4.1h66.9v-4.1h-66.9V1260h66.9v-4.1h-66.9
		v-19.5H866.2z M749,1270.8v0.4c0,4.6-3.7,8.3-8.3,8.3h-46.2c-4.6,0-8.3-3.7-8.3-8.3v-26.4c0-4.6,3.7-8.3,8.3-8.3h46.2
		c4.6,0,8.3,3.7,8.3,8.3v0.4h4.1v-0.4c0-6.8-5.6-12.4-12.4-12.4h-46.2c-6.9,0-12.4,5.6-12.4,12.4v26.4c0,6.9,5.6,12.4,12.4,12.4
		h46.2c6.9,0,12.4-5.6,12.4-12.4v-0.4H749z M979.4,1245.1v-0.4c0-6.8-5.6-12.4-12.4-12.4h-46.2c-6.9,0-12.4,5.6-12.4,12.4
		c0,0.1,0,3,0,2.8c0,6.8,5.6,12.4,12.4,12.4c25.1,0,18.2,0,46.2,0c4.6,0,8.3,3.7,8.3,8.3c0,0.7,0,2.9,0,2.8c0,4.6-3.7,8.3-8.3,8.3
		h-46.2c-4.6,0-8.3-3.7-8.3-8.3v-0.4h-4.1v0.4c0,6.9,5.6,12.4,12.4,12.4H967c6.9,0,12.4-5.6,12.4-12.4c0-0.1,0-3,0-2.8
		c0-6.8-5.6-12.4-12.4-12.4c-16.8,0-30.3,0-46.2,0c-4.6,0-8.3-3.7-8.3-8.3c0-0.7,0-3,0-2.8c0-4.6,3.7-8.3,8.3-8.3H967
		c4.6,0,8.3,3.7,8.3,8.3v0.4H979.4z"/>
	<path class="st1" d="M598.9,767.1H254.6c-14,0-25.3-11.3-25.3-25.3v-25.3h344.2c14,0,25.3,11.3,25.3,25.3V767.1z"/>
</g>
</svg>
